# xmcd
#
# Track frame offsets:
#  150
#  16835
#  46895
#  63943
#  81150
#  94952
#  116798
#  135558
#  153981
#  167987
#  193282
#  208232
#  231368
#
# Disc length: 3418 seconds
#
# Revision: 1
# Processed by: cddbd v1.5.1PL0 Copyright (c) Steve Scherf et al.
# Submitted via: Collectorz.com_Music_Collector 6.9
#
DISCID=b60d580d
DTITLE=Al Basile - Blue Ink
DYEAR=2005
DGENRE=Blues
TTITLE0=I Got to Love and Be Loved
TTITLE1=The Catch-Up
TTITLE2=Just a Heartache
TTITLE3=Stop Knockin'
TTITLE4=Hooray For Me (And to Hell With You)
TTITLE5=Full Time Job
TTITLE6=Annie Get Your Thing On
TTITLE7=Hurt Me
TTITLE8=Lonesome Sun
TTITLE9=School in Hell
TTITLE10=Sugar Shock
TTITLE11=Fifth of Never
TTITLE12=Say Your Prayers
EXTD=
EXTT0=
EXTT1=
EXTT2=
EXTT3=
EXTT4=
EXTT5=
EXTT6=
EXTT7=
EXTT8=
EXTT9=
EXTT10=
EXTT11=
EXTT12=
PLAYORDER=
